<?xml version="1.0" encoding="utf-8"?>
<!-- Generator: Adobe Illustrator 16.0.0, SVG Export Plug-In . SVG Version: 6.00 Build 0)  -->
<!DOCTYPE svg PUBLIC "-//W3C//DTD SVG 1.1 Tiny//EN" "http://www.w3.org/Graphics/SVG/1.1/DTD/svg11-tiny.dtd">
<svg version="1.1" baseProfile="tiny" id="Layer_3" xmlns="http://www.w3.org/2000/svg" xmlns:xlink="http://www.w3.org/1999/xlink"
	 x="0px" y="0px" width="2000px" height="2000px" viewBox="0 0 2000 2000" xml:space="preserve">
<g>
	<g>
		<path d="M637.901,993.638l-165.639,216.208v3.48l263.278-34.867v118.557l-263.278-31.371v3.477l167.377,210.971l-109.843,61.021
			l-106.352-244.098h-3.49l-111.586,245.842l-99.385-62.766l165.64-212.715v-3.484l-258.042,33.123v-118.557l256.302,33.123v-3.48
			L208.984,993.638l106.361-59.277l108.1,240.606h3.486l106.357-242.351L637.901,993.638z"/>
		<path d="M1778.014,993.638l-165.639,216.208v3.479l263.266-34.865v118.557l-263.266-31.371v3.477l167.379,210.971l-109.838,61.021
			l-106.355-244.098h-3.494l-111.584,245.842l-99.381-62.766l165.641-212.715v-3.484l-258.051,33.123v-118.557l256.295,33.121
			v-3.479l-163.885-214.463l106.357-59.277l108.102,240.606h3.484l106.354-242.351L1778.014,993.638z"/>
		<path d="M647.806,673.349c18.976-47.447-4.411-64.552-27.799-73.908c-18.708-7.484-38.488-12.293-58.267-17.106
			c-19.781-4.811-39.56-9.625-57.605-16.839c-61.477-24.59-71.234-75.773-48.512-132.573l5.343-13.367l36.755,14.702l-4.542,11.359
			c-15.105,39.693,0,62.012,36.081,76.444c15.37,6.146,32.477,9.889,49.318,14.3c17.773,4.008,34.88,7.75,52.92,14.966
			c43.034,16.438,56.668,44.37,52.926,76.979l1.336,0.538c19.112-26.461,49.582-36.754,92.083-18.98
			c18.044,7.22,33.678,16.577,48.647,25.664c15.906,8.686,30.207,17.507,46.242,23.923c37.425,14.969,63.88,6.946,79.519-30.204
			l4.544-11.36l36.75,14.701l-5.609,14.029c-21.921,54.797-62.814,87.27-130.303,60.276c-18.046-7.215-35.685-17.376-52.395-27.928
			c-17.234-9.221-34.208-19.117-51.583-26.061c-21.386-8.555-52.791-13.367-71.768,34.078L647.806,673.349z"/>
		<polygon points="1031.486,1080.281 926.875,1094.896 930.957,1124.148 991.942,1115.635 1030.33,1390.438 969.349,1398.959 
			973.438,1428.215 1078.049,1413.6 		"/>
		<path d="M869.364,1279.938L670.005,758.149h48.939l199.357,521.789H869.364z"/>
		<path d="M1100.037,1170.91l200.08-521.789h49.654l-201.518,521.789H1100.037z"/>
		<path d="M1852.543,1541.539c50.377-71.254,89.963-164.096,89.963-293.641c0-129.549-38.867-220.954-89.963-292.92h48.943
			c45.336,59.013,94.279,151.856,94.279,292.92c-0.725,141.061-48.943,232.463-94.279,293.641H1852.543z"/>
		<path d="M149.932,954.978c-52.542,71.25-89.96,164.088-89.96,295.079c0,128.105,39.583,219.512,89.96,291.482h-48.943
			c-45.337-59.74-94.28-151.861-94.28-292.205c0.723-141.061,48.943-233.904,94.28-294.356H149.932z"/>
		<path d="M1170.643,772.531v35.987H810.788v-35.987H1170.643z"/>
		<path d="M1416.342,571.296v49.396h-190.641v-49.396H1416.342z"/>
	</g>
</g>
</svg>
